<mxfile host="65bd71144e">
    <diagram id="T-5rkFu5aWxDGc2_Zmf7" name="Page-1">
        <mxGraphModel dx="1170" dy="683" grid="1" gridSize="10" guides="1" tooltips="1" connect="1" arrows="1" fold="1" page="1" pageScale="1" pageWidth="827" pageHeight="1169" math="0" shadow="0">
            <root>
                <mxCell id="0"/>
                <mxCell id="1" parent="0"/>
                <mxCell id="2" value="Cocktails" style="whiteSpace=wrap;html=1;" parent="1" vertex="1">
                    <mxGeometry x="30" y="190" width="240" height="120" as="geometry"/>
                </mxCell>
                <mxCell id="3" value="&amp;lt;ol&amp;gt; Cocktail&amp;nbsp;" style="rounded=1;whiteSpace=wrap;html=1;" parent="1" vertex="1">
                    <mxGeometry x="280" y="190" width="120" height="30" as="geometry"/>
                </mxCell>
                <mxCell id="5" value="Cocktail" style="rounded=0;whiteSpace=wrap;html=1;" parent="1" vertex="1">
                    <mxGeometry x="40" y="410" width="240" height="120" as="geometry"/>
                </mxCell>
                <mxCell id="6" value="&amp;lt;h1&amp;gt; title" style="rounded=1;whiteSpace=wrap;html=1;" parent="1" vertex="1">
                    <mxGeometry x="310" y="410" width="160" height="30" as="geometry"/>
                </mxCell>
                <mxCell id="7" value="&amp;lt;img&amp;gt;" style="rounded=1;whiteSpace=wrap;html=1;" parent="1" vertex="1">
                    <mxGeometry x="310" y="450" width="160" height="30" as="geometry"/>
                </mxCell>
                <mxCell id="8" value="&amp;lt;ol&amp;gt; Ingredients list" style="rounded=1;whiteSpace=wrap;html=1;" parent="1" vertex="1">
                    <mxGeometry x="310" y="490" width="160" height="30" as="geometry"/>
                </mxCell>
                <mxCell id="9" value="useEffect" style="ellipse;whiteSpace=wrap;html=1;" parent="1" vertex="1">
                    <mxGeometry x="290" y="230" width="60" height="40" as="geometry"/>
                </mxCell>
                <mxCell id="10" value="useState" style="ellipse;whiteSpace=wrap;html=1;" parent="1" vertex="1">
                    <mxGeometry x="360" y="230" width="60" height="40" as="geometry"/>
                </mxCell>
                <mxCell id="11" value="App" style="whiteSpace=wrap;html=1;" parent="1" vertex="1">
                    <mxGeometry x="20" y="30" width="240" height="120" as="geometry"/>
                </mxCell>
                <mxCell id="12" value="Cocktails" style="rounded=1;whiteSpace=wrap;html=1;" parent="1" vertex="1">
                    <mxGeometry x="310" y="110" width="120" height="30" as="geometry"/>
                </mxCell>
                <mxCell id="14" value="" style="endArrow=classic;html=1;" parent="1" edge="1">
                    <mxGeometry width="50" height="50" relative="1" as="geometry">
                        <mxPoint x="520" y="99.5" as="sourcePoint"/>
                        <mxPoint x="560" y="99.5" as="targetPoint"/>
                    </mxGeometry>
                </mxCell>
                <mxCell id="15" value="useState" style="ellipse;whiteSpace=wrap;html=1;" parent="1" vertex="1">
                    <mxGeometry x="450" y="80" width="60" height="40" as="geometry"/>
                </mxCell>
                <mxCell id="16" value="" style="ellipse;whiteSpace=wrap;html=1;" parent="1" vertex="1">
                    <mxGeometry x="350" y="290" width="120" height="80" as="geometry"/>
                </mxCell>
                <mxCell id="17" value="&amp;lt;li&amp;gt; Ingredients" style="rounded=1;whiteSpace=wrap;html=1;" vertex="1" parent="1">
                    <mxGeometry x="390" y="530" width="119" height="20" as="geometry"/>
                </mxCell>
                <mxCell id="18" value="&amp;lt;div&amp;gt; Instructions" style="rounded=1;whiteSpace=wrap;html=1;" vertex="1" parent="1">
                    <mxGeometry x="310" y="710" width="160" height="30" as="geometry"/>
                </mxCell>
                <mxCell id="20" value="API fetch" style="rounded=1;whiteSpace=wrap;html=1;" vertex="1" parent="1">
                    <mxGeometry x="569" y="80" width="61" height="40" as="geometry"/>
                </mxCell>
                <mxCell id="21" value="&amp;lt;button&amp;gt; search cocktails" style="rounded=1;whiteSpace=wrap;html=1;" vertex="1" parent="1">
                    <mxGeometry x="270" y="70" width="120" height="30" as="geometry"/>
                </mxCell>
                <mxCell id="22" value="&amp;lt;input&amp;gt; search" style="rounded=1;whiteSpace=wrap;html=1;" vertex="1" parent="1">
                    <mxGeometry x="270" y="30" width="120" height="30" as="geometry"/>
                </mxCell>
                <mxCell id="23" value="&amp;lt;div&amp;gt; Measure List" style="rounded=1;whiteSpace=wrap;html=1;" vertex="1" parent="1">
                    <mxGeometry x="310" y="640" width="160" height="30" as="geometry"/>
                </mxCell>
                <mxCell id="24" value="&amp;lt;li&amp;gt; Measure" style="rounded=1;whiteSpace=wrap;html=1;" vertex="1" parent="1">
                    <mxGeometry x="400" y="680" width="119" height="20" as="geometry"/>
                </mxCell>
            </root>
        </mxGraphModel>
    </diagram>
</mxfile>